<?xml version="1.0" encoding="UTF-8" standalone="no"?>
<svg
   width="1024"
   height="1024"
   viewBox="0 0 1024 1024"
   version="1.1"
   id="svg5"
   xml:space="preserve"
   inkscape:version="1.2.1 (9c6d41e410, 2022-07-14)"
   sodipodi:docname="White Logo x1024.svg"
   xmlns:inkscape="http://www.inkscape.org/namespaces/inkscape"
   xmlns:sodipodi="http://sodipodi.sourceforge.net/DTD/sodipodi-0.dtd"
   xmlns="http://www.w3.org/2000/svg"
   xmlns:svg="http://www.w3.org/2000/svg"><sodipodi:namedview
     id="namedview7"
     pagecolor="#505050"
     bordercolor="#ffffff"
     borderopacity="1"
     inkscape:showpageshadow="0"
     inkscape:pageopacity="0"
     inkscape:pagecheckerboard="1"
     inkscape:deskcolor="#505050"
     inkscape:document-units="px"
     showgrid="false"
     inkscape:zoom="0.40478516"
     inkscape:cx="266.8082"
     inkscape:cy="963.47406"
     inkscape:window-width="3440"
     inkscape:window-height="1369"
     inkscape:window-x="1912"
     inkscape:window-y="-8"
     inkscape:window-maximized="1"
     inkscape:current-layer="layer1" /><defs
     id="defs2"><inkscape:path-effect
       effect="powerclip"
       id="path-effect3125"
       is_visible="true"
       lpeversion="1"
       inverse="true"
       flatten="false"
       hide_clip="false"
       message="Use fill-rule evenodd on &lt;b&gt;fill and stroke&lt;/b&gt; dialog if no flatten result after convert clip to paths." /><clipPath
       clipPathUnits="userSpaceOnUse"
       id="clipPath3121"><path
         d="m 417.77778,-399.99999 q -7.33333,0 -12.55556,-5.22223 Q 400,-410.44444 400,-417.77778 v -35.55555 h 17.77778 v 35.55555 h 35.55556 v 17.77779 z m 88.88889,0 v -17.77779 h 35.55555 v -35.55555 h 17.77779 v 35.55555 q 0,7.33334 -5.22223,12.55556 -5.22222,5.22223 -12.55556,5.22223 z M 400,-506.66666 v -35.55556 q 0,-7.33333 5.22222,-12.55556 Q 410.44445,-560 417.77778,-560 h 35.55556 v 17.77778 h -35.55556 v 35.55556 z m 142.22222,0 v -35.55556 H 506.66667 V -560 h 35.55555 q 7.33334,0 12.55556,5.22222 5.22223,5.22223 5.22223,12.55556 v 35.55556 z"
         id="path3123"
         style="display:none;fill:#000000;fill-opacity:1;stroke-width:0.222222" /><path
         id="lpe_path-effect3125"
         style="fill:#000000;fill-opacity:1;stroke-width:0.222222"
         class="powerclip"
         d="M 75,-885 H 885 V -75 H 75 Z m 342.77778,485.00001 h 35.55556 v -17.77779 h -35.55556 v -35.55555 H 400 v 35.55555 q 0,7.33334 5.22222,12.55556 5.22223,5.22223 12.55556,5.22223 z m 88.88889,0 h 35.55555 q 7.33334,0 12.55556,-5.22223 5.22223,-5.22222 5.22223,-12.55556 v -35.55555 h -17.77779 v 35.55555 H 506.66667 Z M 400,-506.66666 h 17.77778 v -35.55556 h 35.55556 V -560 h -35.55556 q -7.33333,0 -12.55556,5.22222 Q 400,-549.55555 400,-542.22222 Z m 142.22222,0 h 17.77779 v -35.55556 q 0,-7.33333 -5.22223,-12.55556 Q 549.55556,-560 542.22222,-560 h -35.55555 v 17.77778 h 35.55555 z" /></clipPath></defs><g
     inkscape:label="Layer 1"
     inkscape:groupmode="layer"
     id="layer1"
     transform="translate(-116,-116)"><g
       style="fill:#ffffff;fill-opacity:1"
       id="g2669"
       transform="matrix(1.25,0,0,1.25,28,1228)"
       clip-path="url(#clipPath3121)"
       inkscape:path-effect="#path-effect3125"><path
         d="M 456,-600 H 776 Q 749,-669 693.5,-718.5 638,-768 566,-788 Z m -92,80 160,-276 q -11,-2 -22,-3 -11,-1 -22,-1 -66,0 -123,25 -57,25 -101,67 z M 170,-400 H 388 L 228,-676 q -32,41 -50,90.5 -18,49.5 -18,105.5 0,21 2.5,40.5 2.5,19.5 7.5,39.5 z m 224,228 108,-188 H 184 q 27,69 82.5,118.5 Q 322,-192 394,-172 Z m 86,12 q 66,0 123,-25 57,-25 101,-67 L 596,-440 436,-164 q 11,2 21.5,3 10.5,1 22.5,1 z m 252,-124 q 32,-41 50,-90.5 18,-49.5 18,-105.5 0,-21 -2.5,-40.5 Q 795,-540 790,-560 H 572 Z M 480,-480 Z m 0,400 q -82,0 -155,-31.5 -73,-31.5 -127.5,-86 Q 143,-252 111.5,-325 80,-398 80,-480 q 0,-83 31.5,-155.5 31.5,-72.5 86,-127 54.5,-54.5 127.5,-86 73,-31.5 155,-31.5 83,0 155.5,31.5 72.5,31.5 127,86 54.5,54.5 86,127 31.5,72.5 31.5,155.5 0,82 -31.5,155 -31.5,73 -86,127.5 -54.5,54.5 -127,86 Q 563,-80 480,-80 Z"
         id="path3108"
         inkscape:original-d="M 456,-600 H 776 Q 749,-669 693.5,-718.5 638,-768 566,-788 Z m -92,80 160,-276 q -11,-2 -22,-3 -11,-1 -22,-1 -66,0 -123,25 -57,25 -101,67 z M 170,-400 H 388 L 228,-676 q -32,41 -50,90.5 -18,49.5 -18,105.5 0,21 2.5,40.5 2.5,19.5 7.5,39.5 z m 224,228 108,-188 H 184 q 27,69 82.5,118.5 Q 322,-192 394,-172 Z m 86,12 q 66,0 123,-25 57,-25 101,-67 L 596,-440 436,-164 q 11,2 21.5,3 10.5,1 22.5,1 z m 252,-124 q 32,-41 50,-90.5 18,-49.5 18,-105.5 0,-21 -2.5,-40.5 Q 795,-540 790,-560 H 572 Z M 480,-480 Z m 0,400 q -82,0 -155,-31.5 -73,-31.5 -127.5,-86 Q 143,-252 111.5,-325 80,-398 80,-480 q 0,-83 31.5,-155.5 31.5,-72.5 86,-127 54.5,-54.5 127.5,-86 73,-31.5 155,-31.5 83,0 155.5,31.5 72.5,31.5 127,86 54.5,54.5 86,127 31.5,72.5 31.5,155.5 0,82 -31.5,155 -31.5,73 -86,127.5 -54.5,54.5 -127,86 Q 563,-80 480,-80 Z" /></g></g></svg>
