<svg
   width="792"
   height="792"
   viewBox="0 0 792 792"
   version="1.1"
   id="svg5"
   xml:space="preserve"
   inkscape:version="1.2.1 (9c6d41e410, 2022-07-14)"
   sodipodi:docname="White Logo x1024.svg"
   xmlns:inkscape="http://www.inkscape.org/namespaces/inkscape"
   xmlns:sodipodi="http://sodipodi.sourceforge.net/DTD/sodipodi-0.dtd"
   xmlns="http://www.w3.org/2000/svg"
   xmlns:svg="http://www.w3.org/2000/svg"><sodipodi:namedview
     id="namedview7"
     pagecolor="#505050"
     bordercolor="#ffffff"
     borderopacity="1"
     inkscape:showpageshadow="0"
     inkscape:pageopacity="0"
     inkscape:pagecheckerboard="1"
     inkscape:deskcolor="#505050"
     inkscape:document-units="px"
     showgrid="false"
     inkscape:zoom="0.40478516"
     inkscape:cx="658.37394"
     inkscape:cy="375.50784"
     inkscape:window-width="1920"
     inkscape:window-height="1009"
     inkscape:window-x="-8"
     inkscape:window-y="-8"
     inkscape:window-maximized="1"
     inkscape:current-layer="layer1" /><defs
     id="defs2" /><g
     inkscape:label="Layer 1"
     inkscape:groupmode="layer"
     id="layer1"
     transform="translate(-116,-116)"><g
       style="fill:#e3e3e3"
       id="g695"
       transform="matrix(1.1,0,0,1.1,-16,1040)"><path
         d="m 200,-120 q -33,0 -56.5,-23.5 Q 120,-167 120,-200 v -160 h 80 v 160 h 160 v 80 z m 400,0 v -80 h 160 v -160 h 80 v 160 q 0,33 -23.5,56.5 Q 793,-120 760,-120 Z M 120,-600 v -160 q 0,-33 23.5,-56.5 Q 167,-840 200,-840 h 160 v 80 H 200 v 160 z m 640,0 V -760 H 600 v -80 h 160 q 33,0 56.5,23.5 23.5,23.5 23.5,56.5 v 160 z"
         id="path686" /></g><g
       style="fill:#e3e3e3"
       id="g864"
       transform="matrix(0.6,0,0,0.6,224,800)"><path
         d="m 480,-260 q 75,0 127.5,-52.5 Q 660,-365 660,-440 660,-515 607.5,-567.5 555,-620 480,-620 405,-620 352.5,-567.5 300,-515 300,-440 q 0,75 52.5,127.5 Q 405,-260 480,-260 Z m 0,-80 q -42,0 -71,-29 -29,-29 -29,-71 0,-42 29,-71 29,-29 71,-29 42,0 71,29 29,29 29,71 0,42 -29,71 -29,29 -71,29 z m -320,220 q -33,0 -56.5,-23.5 Q 80,-167 80,-200 v -480 q 0,-33 23.5,-56.5 Q 127,-760 160,-760 h 126 l 74,-80 h 240 l 74,80 h 126 q 33,0 56.5,23.5 23.5,23.5 23.5,56.5 v 480 q 0,33 -23.5,56.5 Q 833,-120 800,-120 Z m 0,-80 H 800 V -680 H 638 l -73,-80 H 395 l -73,80 H 160 Z m 320,-240 z"
         id="path855" /></g></g></svg>
